# File created by Blade
# Date/Time:  Fri Jan 16 17:52:57 2015
#---------------------------------------------------------
:version 1.10
:name HOM
:units
  mass 1.0
  length 1.000000
  angle deg
:documentation
     Acclaim Skeleton File
:root
   axis xyz
   order TX TY TZ RX RY RZ
   position 0.000000 0.000000 0.000000
   orientation 0 0 0
:bonedata
   begin
      id 1
      name Spine_dum
      direction 0.000000 1.000000 0.000000
      length 7.170412
      axis 0.0 0.0 0.0 xyz
   end
   begin
      id 2
      name LeftUpLeg_dum
      direction 1.000000 0.000000 0.000000
      length 4.318350
      axis 0.0 0.0 0.0 xyz
   end
   begin
      id 3
      name RightUpLeg_dum
      direction -1.000000 0.000000 0.000000
      length 4.318350
      axis 0.0 0.0 0.0 xyz
   end
   begin
      id 4
      name Spine
      direction 0.000000 1.000000 0.000000
      length 0.000000
      axis 0.0 0.0 0.0 xyz
      dof rx ry rz
   end
   begin
      id 5
      name Spine_dum1
      direction 0.000000 1.000000 0.000000
      length 14.276153
      axis 0.0 0.0 0.0 xyz
   end
   begin
      id 6
      name Spine_dum2
      direction 0.000000 1.000000 0.000000
      length 10.718243
      axis 0.0 0.0 0.0 xyz
   end
   begin
      id 7
      name Spine_dum3
      direction 0.000000 1.000000 0.000000
      length 10.718243
      axis 0.0 0.0 0.0 xyz
   end
   begin
      id 8
      name Head
      direction 0.000000 1.000000 0.000000
      length 4.527550
      axis 0.0 0.0 0.0 xyz
      dof rx ry rz
   end
   begin
      id 9
      name LeftShoulder
      direction 1.000000 0.000000 0.000000
      length 7.058872
      axis 0.0 0.0 -90.0 xyz
      dof rx ry rz
   end
   begin
      id 10
      name LeftArm
      direction 1.000000 0.000000 0.000000
      length 10.955525
      axis 0.0 0.0 -90.0 xyz
      dof rx ry rz
   end
   begin
      id 11
      name LeftForeArm
      direction 1.000000 0.000000 0.000000
      length 8.193716
      axis 0.0 0.0 -90.0 xyz
      dof ry rz rx
   end
   begin
      id 12
      name LeftHand
      direction 0.000000 0.000000 0.000000
      length 0.000000
      axis 0.0 0.0 -90.0 xyz
      dof rx ry rz
   end
   begin
      id 13
      name LeftHand_dum1
      direction 0.000000 0.000000 0.000000
      length 0.000000
      axis 0.0 0.0 -90.0 xyz
   end
   begin
      id 14
      name LeftHand_dum2
      direction 1.000000 0.000000 0.000000
      length 3.937000
      axis 0.0 0.0 -90.0 xyz
   end
   begin
      id 15
      name LeftHandThumb1
      direction 0.000000 0.000000 1.000000
      length 3.937000
      axis 0.0 0.0 -90.0 xyz
      dof rx rz ry
   end
   begin
      id 16
      name RightShoulder
      direction -1.000000 0.000000 0.000000
      length 7.058872
      axis 0.0 0.0 90.0 xyz
      dof rx ry rz
   end
   begin
      id 17
      name RightArm
      direction -1.000000 0.000000 0.000000
      length 10.955525
      axis 0.0 0.0 90.0 xyz
      dof rx ry rz
   end
   begin
      id 18
      name RightForeArm
      direction -1.000000 0.000000 0.000000
      length 8.193716
      axis 0.0 0.0 90.0 xyz
      dof ry rz rx
   end
   begin
      id 19
      name RightHand
      direction 0.000000 0.000000 0.000000
      length 0.000000
      axis 0.0 0.0 90.0 xyz
      dof rx ry rz
   end
   begin
      id 20
      name RightHand_dum1
      direction 0.000000 0.000000 0.000000
      length 0.000000
      axis 0.0 0.0 90.0 xyz
   end
   begin
      id 21
      name RightHand_dum2
      direction -1.000000 0.000000 0.000000
      length 3.937000
      axis 0.0 0.0 90.0 xyz
   end
   begin
      id 22
      name RightHandThumb1
      direction 0.000000 0.000000 1.000000
      length 3.937000
      axis 0.0 0.0 90.0 xyz
      dof rx rz ry
   end
   begin
      id 23
      name LeftUpLeg
      direction 0.000000 -1.000000 0.000000
      length 17.323638
      axis 0.0 0.0 0.0 xyz
      dof rx ry rz
   end
   begin
      id 24
      name LeftLeg
      direction 0.000000 -1.000000 0.000000
      length 16.270368
      axis 0.0 0.0 0.0 xyz
      dof rx ry rz
   end
   begin
      id 25
      name LeftFoot
      direction 0.000000 -0.258819 0.965926
      length 4.922846
      axis 15.0 0.0 0.0 xyz
      dof rx ry rz
   end
   begin
      id 26
      name LeftToeBase
      direction 0.000000 0.000000 1.000000
      length 2.952750
      axis 0.0 0.0 0.0 xyz
      dof rx ry rz
   end
   begin
      id 27
      name RightUpLeg
      direction 0.000000 -1.000000 0.000000
      length 17.323638
      axis 0.0 0.0 0.0 xyz
      dof rx ry rz
   end
   begin
      id 28
      name RightLeg
      direction 0.000000 -1.000000 0.000000
      length 16.270368
      axis 0.0 0.0 0.0 xyz
      dof rx ry rz
   end
   begin
      id 29
      name RightFoot
      direction 0.000000 -0.258819 0.965926
      length 4.922846
      axis 15.0 0.0 0.0 xyz
      dof rx ry rz
   end
   begin
      id 30
      name RightToeBase
      direction 0.000000 0.000000 1.000000
      length 2.952750
      axis 0.0 0.0 0.0 xyz
      dof rx ry rz
   end
:hierarchy
   begin
      root Spine_dum LeftUpLeg_dum RightUpLeg_dum
      Spine_dum Spine
      LeftUpLeg_dum LeftUpLeg
      RightUpLeg_dum RightUpLeg
      Spine Spine_dum1 Spine_dum2 Spine_dum3
      Spine_dum1 Head
      Spine_dum2 LeftShoulder
      Spine_dum3 RightShoulder
      LeftShoulder LeftArm
      LeftArm LeftForeArm
      LeftForeArm LeftHand
      LeftHand LeftHand_dum1 LeftHand_dum2
      LeftHand_dum1 LeftHandThumb1
      RightShoulder RightArm
      RightArm RightForeArm
      RightForeArm RightHand
      RightHand RightHand_dum1 RightHand_dum2
      RightHand_dum1 RightHandThumb1
      LeftUpLeg LeftLeg
      LeftLeg LeftFoot
      LeftFoot LeftToeBase
      RightUpLeg RightLeg
      RightLeg RightFoot
      RightFoot RightToeBase
   end

# File created by Blade
# Date/Time:  Fri Jan 16 17:53:05 2015
# Frame Rate: 120.000 fps
#------------------------------------------------------
:FULLY-SPECIFIED
:DEGREES
1738
root -2.541943 35.617355 -11.647962 -5.182759 11.648658 -13.076445
Spine 1.282354 -12.572891 11.676095
Head 9.892451 -4.129596 -4.077543
LeftShoulder -20.097631 15.312766 -7.470837
LeftArm 27.880049 -14.350664 -68.980237
LeftForeArm 4.585790 -0.000000 125.691867
LeftHand 1.592599 -0.000000 15.201305
LeftHandThumb1 -26.253704 0.000000 33.147579
RightShoulder -5.689209 -6.743007 -0.278737
RightArm -0.297225 -20.420818 73.302369
RightForeArm -13.860236 -0.000000 17.334195
RightHand -0.442528 -0.000000 0.233280
RightHandThumb1 -24.326973 -0.000000 -32.862282
LeftUpLeg 10.946646 -5.775095 0.955818
LeftLeg -7.734291 -0.000000 0.000000
LeftFoot -13.185550 24.762075 -4.632141
LeftToeBase 18.578979 -0.000000 -0.000000
RightUpLeg -14.030768 5.067115 7.776372
RightLeg 110.213072 -0.000000 -0.000000
RightFoot 10.674724 -12.228567 19.460761
RightToeBase 5.948652 -0.000000 -0.000000
1739
root -2.538588 35.620973 -11.651307 -5.195051 11.729302 -13.122496
Spine 1.280781 -12.746191 11.738426
Head 9.862493 -4.139834 -4.048824
LeftShoulder -20.078808 15.284639 -7.468429
LeftArm 27.892986 -14.313449 -68.955452
LeftForeArm 4.593248 -0.000000 125.582239
LeftHand 1.656310 -0.000000 15.451984
LeftHandThumb1 -26.253704 0.000000 33.147579
RightShoulder -5.701338 -6.797110 -0.254907
RightArm -0.324759 -20.428799 73.300686
RightForeArm -13.965269 -0.000000 17.340251
RightHand -0.437984 0.000000 0.422991
RightHandThumb1 -24.326973 -0.000000 -32.862282
LeftUpLeg 10.925888 -5.780304 0.996568
LeftLeg -7.729297 -0.000000 0.000000
LeftFoot -13.179409 24.703245 -4.631861
LeftToeBase 18.600336 -0.000000 -0.000000
RightUpLeg -13.985433 6.605939 7.470115
RightLeg 110.100689 -0.000000 -0.000000
RightFoot 10.680952 -12.576845 18.803781
RightToeBase 6.142872 -0.000000 -0.000000
1740
root -2.541241 35.625464 -11.653615 -5.222582 11.840837 -13.188177
Spine 1.292419 -12.935846 11.788499
Head 9.836752 -4.175816 -3.987314
LeftShoulder -20.047326 15.271828 -7.418844
LeftArm 27.926471 -14.276967 -68.965456
LeftForeArm 4.655770 0.000000 125.491243
LeftHand 1.639749 -0.000000 15.137293
LeftHandThumb1 -26.253704 0.000000 33.147579
RightShoulder -5.698932 -6.809531 -0.199855
RightArm -0.436763 -20.392194 73.348892
RightForeArm -13.912717 -0.000000 17.342888
RightHand -0.376667 -0.000000 0.281666
RightHandThumb1 -24.326973 -0.000000 -32.862282
LeftUpLeg 10.885460 -5.717922 1.075699
LeftLeg -7.673992 -0.000000 0.000000
LeftFoot -13.193496 24.558292 -4.567290
LeftToeBase 18.676522 -0.000000 -0.000000
RightUpLeg -13.918108 8.177021 7.223838
RightLeg 109.977820 -0.000000 -0.000000
RightFoot 10.712554 -13.051041 18.035125
RightToeBase 5.967651 -0.000000 -0.000000
1741
root -2.537135 35.628991 -11.658247 -5.232232 11.939772 -13.240841
Spine 1.291524 -13.120497 11.847747
Head 9.796447 -4.217265 -3.918914
LeftShoulder -20.025388 15.245900 -7.382340
LeftArm 27.933931 -14.228934 -68.989176
LeftForeArm 4.595205 -0.000000 125.405196
LeftHand 1.462738 -0.000000 15.228240
LeftHandThumb1 -26.253704 0.000000 33.147579
RightShoulder -5.711453 -6.825874 -0.167194
RightArm -0.513329 -20.396127 73.384851
RightForeArm -13.935411 -0.000000 17.302454
RightHand -0.336530 -0.000000 0.622963
RightHandThumb1 -24.326973 -0.000000 -32.862282
LeftUpLeg 10.846458 -5.690486 1.124826
LeftLeg -7.648485 -0.000000 0.000000
LeftFoot -13.171439 24.453847 -4.514089
LeftToeBase 18.665740 -0.000000 -0.000000
RightUpLeg -13.888013 9.815511 6.929012
RightLeg 109.860115 -0.000000 -0.000000
RightFoot 10.719337 -13.640242 17.200949
RightToeBase 6.280727 -0.000000 -0.000000
1742
root -2.531548 35.632805 -11.664564 -5.243237 12.041510 -13.301500
Spine 1.287583 -13.304710 11.935384
Head 9.758638 -4.215487 -3.891297
LeftShoulder -19.974294 15.212314 -7.405953
LeftArm 27.917975 -14.201878 -68.916408
LeftForeArm 4.653757 -0.000000 125.328509
LeftHand 1.591536 -0.000000 15.460236
LeftHandThumb1 -26.253704 0.000000 33.147579
RightShoulder -5.710481 -6.839909 -0.125113
RightArm -0.613078 -20.415090 73.388607
RightForeArm -13.756953 -0.000000 17.292028
RightHand -0.342250 -0.000000 0.677684
RightHandThumb1 -24.326973 -0.000000 -32.862282
LeftUpLeg 10.816293 -5.727217 1.168851
LeftLeg -7.645116 -0.000000 0.000000
LeftFoot -13.142821 24.427904 -4.493308
LeftToeBase 18.637524 -0.000000 -0.000000
RightUpLeg -13.856399 11.513349 6.634665
RightLeg 109.732145 -0.000000 -0.000000
RightFoot 10.733598 -14.288580 16.297168
RightToeBase 6.546165 -0.000000 -0.000000
1743
root -2.524712 35.635743 -11.672078 -5.253008 12.132755 -13.345324
Spine 1.294513 -13.461678 11.994807
Head 9.720320 -4.243107 -3.838855
LeftShoulder -19.909160 15.155835 -7.337290
LeftArm 27.883318 -14.142261 -68.955936
LeftForeArm 4.611713 -0.000000 125.239977
LeftHand 1.587004 -0.000000 15.557386
LeftHandThumb1 -26.253704 0.000000 33.147579
RightShoulder -5.746776 -6.861362 -0.094807
RightArm -0.673928 -20.372986 73.403827
RightForeArm -13.906205 -0.000000 17.249332
RightHand -0.378991 -0.000000 0.854439
RightHandThumb1 -24.326973 -0.000000 -32.862282
LeftUpLeg 10.789116 -5.760220 1.191160
LeftLeg -7.646870 -0.000000 0.000000
LeftFoot -13.117920 24.432718 -4.472426
LeftToeBase 18.651729 -0.000000 -0.000000
RightUpLeg -13.837242 13.263120 6.299076
RightLeg 109.637450 -0.000000 -0.000000
RightFoot 10.701732 -14.988258 15.540096
RightToeBase 6.678465 -0.000000 -0.000000
1744
root -2.518586 35.640119 -11.679064 -5.264000 12.261587 -13.377347
Spine 1.300619 -13.666014 12.034259
Head 9.681642 -4.251735 -3.792258
LeftShoulder -19.881729 15.112512 -7.323082
LeftArm 27.909502 -14.108275 -68.947573
LeftForeArm 4.546151 -0.000000 125.152519
LeftHand 1.427839 0.000000 15.089153
LeftHandThumb1 -26.253704 0.000000 33.147579
RightShoulder -5.766053 -6.874453 -0.041520
RightArm -0.780186 -20.428765 73.435762
RightForeArm -13.827961 -0.000000 17.234460
RightHand -0.366683 -0.000000 0.790354
RightHandThumb1 -24.326973 -0.000000 -32.862282
LeftUpLeg 10.794233 -5.963437 1.187896
LeftLeg -7.708090 -0.000000 0.000000
LeftFoot -13.050172 24.524700 -4.522463
LeftToeBase 18.659414 -0.000000 -0.000000
RightUpLeg -13.806113 15.010423 5.974920
RightLeg 109.534525 -0.000000 -0.000000
RightFoot 10.710174 -15.757269 14.739039
RightToeBase 6.540540 -0.000000 -0.000000
1745
root -2.518391 35.643133 -11.687497 -5.282929 12.404445 -13.432781
Spine 1.319706 -13.861281 12.075516
Head 9.623617 -4.276226 -3.714113
LeftShoulder -19.793439 15.035875 -7.251137
LeftArm 27.846338 -14.082422 -68.924845
LeftForeArm 4.457730 -0.000000 125.051473
LeftHand 1.630165 -0.000000 15.283135
LeftHandThumb1 -26.253704 0.000000 33.147579
RightShoulder -5.817907 -6.905121 0.039884
RightArm -0.850810 -20.661288 73.391533
RightForeArm -13.731846 -0.000000 17.263104
RightHand -0.310459 -0.000000 0.605310
RightHandThumb1 -24.326973 -0.000000 -32.862282
LeftUpLeg 10.724397 -5.904922 1.246304
LeftLeg -7.639953 -0.000000 0.000000
LeftFoot -13.050149 24.391251 -4.439265
LeftToeBase 18.674101 -0.000000 -0.000000
RightUpLeg -13.788247 16.704450 5.659323
RightLeg 109.441198 -0.000000 -0.000000
RightFoot 10.785782 -16.664075 13.575671
RightToeBase 6.475677 -0.000000 -0.000000
1746
root -2.520303 35.647976 -11.693902 -5.319774 12.586655 -13.518549
Spine 1.328435 -14.089668 12.157506
Head 9.593274 -4.301871 -3.668704
LeftShoulder -19.742974 15.139411 -7.340661
LeftArm 28.039984 -14.126176 -68.815533
LeftForeArm 4.456238 -0.000000 124.940395
LeftHand 1.847554 -0.000000 15.350104
LeftHandThumb1 -26.253704 0.000000 33.147579
RightShoulder -5.866646 -6.951977 0.065361
RightArm -0.913653 -20.561622 73.490388
RightForeArm -13.937878 -0.000000 17.175960
RightHand -0.329616 -0.000000 0.245001
RightHandThumb1 -24.326973 -0.000000 -32.862282
LeftUpLeg 10.674864 -5.934449 1.331746
LeftLeg -7.592693 -0.000000 0.000000
LeftFoot -13.033359 24.281754 -4.357335
LeftToeBase 18.631057 -0.000000 -0.000000
RightUpLeg -13.757915 18.469323 5.400935
RightLeg 109.356778 -0.000000 -0.000000
RightFoot 10.825377 -17.581799 12.724532
RightToeBase 6.572842 -0.000000 -0.000000
1747
root -2.522224 35.653852 -11.700668 -5.353523 12.804791 -13.602662
Spine 1.331487 -14.343680 12.223941
Head 9.561431 -4.330273 -3.603101
LeftShoulder -19.658203 15.128417 -7.308643
LeftArm 28.082411 -14.116278 -68.800874
LeftForeArm 4.432194 -0.000000 124.841835
LeftHand 1.736981 -0.000000 15.354025
LeftHandThumb1 -26.253704 0.000000 33.147579
RightShoulder -5.907660 -6.964501 0.135525
RightArm -1.041113 -20.381447 73.538525
RightForeArm -14.106694 -0.000000 17.167348
RightHand -0.328641 0.000000 0.984359
RightHandThumb1 -24.326973 -0.000000 -32.862282
LeftUpLeg 10.631754 -6.015337 1.412266
LeftLeg -7.578180 -0.000000 0.000000
LeftFoot -13.001466 24.188598 -4.292433
LeftToeBase 18.677560 -0.000000 -0.000000
RightUpLeg -13.743452 20.152440 5.102925
RightLeg 109.259153 -0.000000 -0.000000
RightFoot 10.738375 -18.703451 11.632044
RightToeBase 7.220061 -0.000000 -0.000000
1748
root -2.520550 35.658961 -11.707414 -5.382275 13.054223 -13.676043
Spine 1.319783 -14.643280 12.280854
Head 9.535109 -4.356544 -3.526078
LeftShoulder -19.609549 15.105301 -7.235217
LeftArm 28.114030 -14.023489 -68.859796
LeftForeArm 4.551043 -0.000000 124.720175
LeftHand 1.748788 -0.000000 15.129410
LeftHandThumb1 -26.253704 0.000000 33.147579
RightShoulder -5.962887 -7.000578 0.190411
RightArm -1.127366 -20.503681 73.547064
RightForeArm -14.218540 0.000000 17.166767
RightHand -0.339449 -0.000000 1.262030
RightHandThumb1 -24.326973 -0.000000 -32.862282
LeftUpLeg 10.634107 -6.312478 1.451899
LeftLeg -7.654902 -0.000000 0.000000
LeftFoot -12.921007 24.257675 -4.297341
LeftToeBase 18.715065 -0.000000 -0.000000
RightUpLeg -13.737240 21.831546 4.768807
RightLeg 109.176333 -0.000000 -0.000000
RightFoot 10.809842 -19.701237 10.725257
RightToeBase 7.005378 -0.000000 -0.000000
